# xmcd CD database file
#
# Track frame offsets:
#	150
#	24387
#	48779
#	64519
#	84877
#	103127
#	127258
#	151892
#	175991
#
# Disc length: 2926 seconds
#
# Revision: 0
# Processed by: cddbd v1.5.2PL0 Copyright (c) Steve Scherf et al.
# Submitted via: CDex 1.70beta3
#
DISCID=690b6c09
DTITLE=Michael Gregory Jackson Clarity Quartet - After Before
DYEAR=2015
DGENRE=Jazz
TTITLE0=Jcak-Jcak (For Ornette)
TTITLE1=After Before (For K)
TTITLE2=5/1
TTITLE3=G Thing
TTITLE4=We Are
TTITLE5=Moonful
TTITLE6=The Rainy Days
TTITLE7=5 to the Bar
TTITLE8=Soul Unfolding
EXTD=YEAR: 2015
EXTT0=
EXTT1=
EXTT2=
EXTT3=
EXTT4=
EXTT5=
EXTT6=
EXTT7=
EXTT8=
PLAYORDER=
